<?xml version="1.0" encoding="utf-8"?>
<COLLADA xmlns="http://www.collada.org/2005/11/COLLADASchema" version="1.4.1" xmlns:xsi="http://www.w3.org/2001/XMLSchema-instance">
  <asset>
    <contributor>
      <author>Blender User</author>
      <authoring_tool>Blender 4.5.1 LTS commit date:2025-07-29, commit time:05:31, hash:b0a72b245dcf</authoring_tool>
    </contributor>
    <created>2025-08-14T15:15:00</created>
    <modified>2025-08-14T15:15:00</modified>
    <unit name="meter" meter="1"/>
    <up_axis>Z_UP</up_axis>
  </asset>
  <library_effects>
    <effect id="table_white-effect">
      <profile_COMMON>
        <technique sid="common">
          <lambert>
            <emission>
              <color sid="emission">0 0 0 1</color>
            </emission>
            <diffuse>
              <color sid="diffuse">0.8 0.8 0.8 1</color>
            </diffuse>
            <index_of_refraction>
              <float sid="ior">1.45</float>
            </index_of_refraction>
          </lambert>
        </technique>
      </profile_COMMON>
    </effect>
    <effect id="pillar_aluminium-effect">
      <profile_COMMON>
        <technique sid="common">
          <lambert>
            <emission>
              <color sid="emission">0 0 0 1</color>
            </emission>
            <diffuse>
              <color sid="diffuse">0.8 0.8 0.8 1</color>
            </diffuse>
            <reflectivity>
              <float sid="specular">1</float>
            </reflectivity>
            <index_of_refraction>
              <float sid="ior">1.5</float>
            </index_of_refraction>
          </lambert>
        </technique>
      </profile_COMMON>
    </effect>
    <effect id="roof_white-effect">
      <profile_COMMON>
        <technique sid="common">
          <lambert>
            <emission>
              <color sid="emission">0 0 0 1</color>
            </emission>
            <diffuse>
              <color sid="diffuse">0.8 0.8 0.8 1</color>
            </diffuse>
            <index_of_refraction>
              <float sid="ior">1.5</float>
            </index_of_refraction>
          </lambert>
        </technique>
      </profile_COMMON>
    </effect>
    <effect id="arm_stand_dark-effect">
      <profile_COMMON>
        <technique sid="common">
          <lambert>
            <emission>
              <color sid="emission">0 0 0 1</color>
            </emission>
            <diffuse>
              <color sid="diffuse">0.0415042 0.0415042 0.0415042 1</color>
            </diffuse>
            <index_of_refraction>
              <float sid="ior">1.5</float>
            </index_of_refraction>
          </lambert>
        </technique>
      </profile_COMMON>
    </effect>
    <effect id="Material_001-effect">
      <profile_COMMON>
        <technique sid="common">
          <lambert>
            <emission>
              <color sid="emission">0 0 0 1</color>
            </emission>
            <diffuse>
              <color sid="diffuse">0 0 0 1</color>
            </diffuse>
            <index_of_refraction>
              <float sid="ior">1.5</float>
            </index_of_refraction>
          </lambert>
        </technique>
      </profile_COMMON>
    </effect>
    <effect id="halter_metallic-effect">
      <profile_COMMON>
        <technique sid="common">
          <lambert>
            <emission>
              <color sid="emission">0 0 0 1</color>
            </emission>
            <diffuse>
              <color sid="diffuse">0.4838003 0.4838003 0.4838003 1</color>
            </diffuse>
            <reflectivity>
              <float sid="specular">0.8</float>
            </reflectivity>
            <index_of_refraction>
              <float sid="ior">1.5</float>
            </index_of_refraction>
          </lambert>
        </technique>
      </profile_COMMON>
    </effect>
  </library_effects>
  <library_images/>
  <library_materials>
    <material id="table_white-material" name="table_white">
      <instance_effect url="#table_white-effect"/>
    </material>
    <material id="pillar_aluminium-material" name="pillar_aluminium">
      <instance_effect url="#pillar_aluminium-effect"/>
    </material>
    <material id="roof_white-material" name="roof_white">
      <instance_effect url="#roof_white-effect"/>
    </material>
    <material id="arm_stand_dark-material" name="arm_stand_dark">
      <instance_effect url="#arm_stand_dark-effect"/>
    </material>
    <material id="Material_001-material" name="Material.001">
      <instance_effect url="#Material_001-effect"/>
    </material>
    <material id="halter_metallic-material" name="halter_metallic">
      <instance_effect url="#halter_metallic-effect"/>
    </material>
  </library_materials>
  <library_geometries>
    <geometry id="Cube-mesh" name="Cube">
      <mesh>
        <source id="Cube-mesh-positions">
          <float_array id="Cube-mesh-positions-array" count="564">-2 2 0 -2 2 -2 0 2 0 0 2 -2 -2 0 0 -2 0 -2 0 0 -1.19209e-7 0 0 -2 -0.9533333 0 0 -0.9533333 0 2.561366 -1.131111 0 1.52669e-7 -1.131111 0 2.561366 -0.9533333 0.07058823 1.52669e-7 -0.9533333 0.07058823 2.561366 -1.131111 0.07058823 1.52669e-7 -1.131111 0.07058823 2.561366 -0.9533333 1.929412 0 -0.9533333 1.929412 2.561366 -1.131111 1.929412 0 -1.131111 1.929412 2.561366 -0.9533333 2 0 -0.9533333 2 2.561366 -1.131111 2 0 -1.131111 2 2.561366 -1.911111 0.9349021 0 -1.911111 0.9349022 2.561366 -2 0.9349022 0 -2 0.9349022 2.561366 -1.911111 1.060392 0 -1.911111 1.060392 2.561366 -2 1.060392 0 -2 1.060392 2.561366 0 2.38419e-7 2.561366 -1.100466 1 2.561366 0 2.38419e-7 2.646745 -2 2.38419e-7 2.561366 -1.099523 1.006427 2.561366 -2 2.38419e-7 2.646745 0 2.000001 2.561366 -1.096731 1.012606 2.561366 0 2.000001 2.646745 -2 2.000001 2.561366 -1.092197 1.018301 2.561366 -2 2.000001 2.646745 -1.086095 1.023293 2.561366 -1.07866 1.02739 2.561366 -1.070177 1.030434 2.561366 -1.060973 1.032308 2.561366 -1.051401 1.032941 2.561366 -1.041828 1.032308 2.561366 -1.032624 1.030434 2.561366 -1.024141 1.02739 2.561366 -1.016706 1.023293 2.561366 -1.010604 1.018301 2.561366 -1.00607 1.012606 2.561366 -1.003278 1.006427 2.561366 -1.002335 1 2.561366 -1.003278 0.9935737 2.561366 -1.00607 0.9873942 2.561366 -1.010604 0.9816991 2.561366 -1.016706 0.9767073 2.561366 -1.024141 0.9726107 2.561366 -1.032624 0.9695666 2.561366 -1.041828 0.967692 2.561366 -1.051401 0.9670591 2.561366 -1.060973 0.967692 2.561366 -1.070177 0.9695666 2.561366 -1.07866 0.9726107 2.561366 -1.086095 0.9767073 2.561366 -1.092197 0.9816991 2.561366 -1.096731 0.9873942 2.561366 -1.099523 0.9935737 2.561366 -1.051401 0.9670591 2.646745 -1.041828 0.967692 2.646745 -1.060973 0.967692 2.646745 -1.024141 0.9726107 2.646745 -1.032624 0.9695666 2.646745 -1.070177 0.9695666 2.646745 -1.016706 0.9767073 2.646745 -1.086095 0.9767073 2.646745 -1.00607 0.9873942 2.646745 -1.096731 0.9873942 2.646745 -1.010604 0.9816991 2.646745 -1.092197 0.9816991 2.646745 -1.07866 0.9726107 2.646745 -1.100466 1 2.646745 -1.092197 1.018301 2.646745 -1.096731 1.012606 2.646745 -1.002335 1 2.646745 -1.099523 1.006427 2.646745 -1.07866 1.02739 2.646745 -1.051401 1.032941 2.646745 -1.041828 1.032308 2.646745 -1.060973 1.032308 2.646745 -1.032624 1.030434 2.646745 -1.070177 1.030434 2.646745 -1.086095 1.023293 2.646745 -1.003278 0.9935737 2.646745 -1.099523 0.9935737 2.646745 -1.00607 1.012606 2.646745 -1.003278 1.006427 2.646745 -1.016706 1.023293 2.646745 -1.024141 1.02739 2.646745 -1.010604 1.018301 2.646745 -2 0 0 -2 0 0.1611526 -0.9533333 0.3450981 0 -0.9533333 0.3450981 0.1611526 -2 0.3450981 0 -2 0.3450981 0.1611526 -1.131111 0 0.1611526 -1.131111 0 0 -0.9533333 0.07058823 0 -1.131111 0.07058823 0 -1.131111 0.07058823 0.1611526 -0.9533333 0.07058823 0.1611526 -1.444445 0.2094117 0.1611527 -1.444445 0.2094117 0.1611527 -1.444018 0.212472 0.1611527 -1.444018 0.212472 0.1611527 -1.442753 0.2154147 0.1611527 -1.442753 0.2154147 0.1611527 -1.440699 0.2181266 0.1611527 -1.440699 0.2181266 0.1611527 -1.437936 0.2205036 0.1611527 -1.437936 0.2205036 0.1611527 -1.434568 0.2224544 0.1611527 -1.434568 0.2224544 0.1611527 -1.430726 0.223904 0.1611527 -1.430726 0.223904 0.1611527 -1.426558 0.2247966 0.1611527 -1.426558 0.2247966 0.1611527 -1.422222 0.225098 0.1611527 -1.422222 0.225098 0.1611527 -1.417887 0.2247966 0.1611527 -1.417887 0.2247966 0.1611527 -1.413718 0.223904 0.1611527 -1.413718 0.223904 0.1611527 -1.409876 0.2224544 0.1611527 -1.409876 0.2224544 0.1611527 -1.406509 0.2205036 0.1611527 -1.406509 0.2205036 0.1611527 -1.403745 0.2181266 0.1611527 -1.403745 0.2181266 0.1611527 -1.401692 0.2154147 0.1611527 -1.401692 0.2154147 0.1611527 -1.400427 0.212472 0.1611527 -1.400427 0.212472 0.1611527 -1.4 0.2094117 0.1611527 -1.4 0.2094117 0.1611527 -1.400427 0.2063515 0.1611527 -1.400427 0.2063515 0.1611527 -1.401692 0.2034089 0.1611527 -1.401692 0.2034089 0.1611527 -1.403745 0.200697 0.1611527 -1.403745 0.200697 0.1611527 -1.406509 0.1983199 0.1611527 -1.406509 0.1983199 0.1611527 -1.409876 0.1963691 0.1611527 -1.409876 0.1963691 0.1611527 -1.413718 0.1949195 0.1611527 -1.413718 0.1949195 0.1611527 -1.417887 0.1940269 0.1611527 -1.417887 0.1940269 0.1611527 -1.422222 0.1937255 0.1611527 -1.422222 0.1937255 0.1611527 -1.426558 0.1940269 0.1611527 -1.426558 0.1940269 0.1611527 -1.430726 0.1949195 0.1611527 -1.430726 0.1949195 0.1611527 -1.434568 0.1963691 0.1611527 -1.434568 0.1963691 0.1611527 -1.437936 0.1983199 0.1611527 -1.437936 0.1983199 0.1611527 -1.440699 0.200697 0.1611527 -1.440699 0.200697 0.1611527 -1.442753 0.2034089 0.1611527 -1.442753 0.2034089 0.1611527 -1.444018 0.2063515 0.1611527 -1.444018 0.2063515 0.1611527 -1.777778 0.3607844 0.3159019 -1.777778 0.3607844 0.610459 -1.911111 0.3607844 0.3159019 -1.911111 0.3607844 0.610459 -1.777778 2.133334 0.3159019 -1.777778 2.133334 0.610459 -1.911111 2.133334 0.3159019 -1.911111 2.133334 0.610459</float_array>
          <technique_common>
            <accessor source="#Cube-mesh-positions-array" count="188" stride="3">
              <param name="X" type="float"/>
              <param name="Y" type="float"/>
              <param name="Z" type="float"/>
            </accessor>
          </technique_common>
        </source>
        <source id="Cube-mesh-normals">
          <float_array id="Cube-mesh-normals-array" count="1044">0 0 1 1 0 0 0 -1 0 0 0 -1 0 1 0 -1 0 0 0 -1 0 -1 0 0 0 1 0 1 0 0 -8.58765e-7 0 -1 0 0 1 0 -1 0 -1 0 0 0 1 0 1 0 0 0 0 -1 0 0 1 -6.70552e-7 -1 0 -1 0 0 0 1 0 1 0 0 0 0 -1 0 0 1 0 -1 0 -1 0 0 0 1 0 1 0 0 0 0 -1 0 0 -1 0 0 1 0 0 1 0.9894114 -0.1451383 0 0.9112961 -0.4117516 0 0.782338 -0.622854 0 0.633181 -0.7740038 0 0.4825865 -0.8758484 0 0.3377563 -0.9412336 0 0.1995659 -0.9798844 0 0.06598538 -0.9978206 0 -0.06598454 -0.9978207 0 -0.1995659 -0.9798844 0 -0.3377563 -0.9412336 0 -0.4825865 -0.8758484 0 -0.6331884 -0.7739977 0 -0.782338 -0.622854 0 -0.9112961 -0.4117516 0 -0.9894088 -0.1451563 0 -0.989409 0.145155 0 -0.9112947 0.4117549 0 -0.782338 0.622854 0 -0.6331884 0.7739977 0 -0.4825811 0.8758513 0 -0.3377622 0.9412315 0 -0.1995659 0.9798844 0 -0.06597834 0.9978211 0 0.06597918 0.997821 0 0.1995659 0.9798844 0 0.3377622 0.9412315 0 0.4825811 0.8758513 0 0.633181 0.7740038 0 0.782338 0.622854 0 0.9112947 0.4117549 0 0.9894115 0.145137 0 0 -1 0 -1 0 0 0 1 0 1 0 0 0 0 -1 0 0 1 1 0 0 0 -1 0 0 0 1 0 0 1 0 0 1 0 0 1 0 0 1 0 0 1 0 0 1 0 0 1 0 0 1 0 0 1 0 0 1 0 0 1 0 0 1 0 0 1 0 0 1 0 0 1 0 0 1 0 0 1 0 0 1 0 0 1 0 0 1 0 0 1 0 0 1 0 0 1 0 0 1 0 0 1 0 0 1 0 0 1 0 0 1 0 0 1 0 0 1 0 0 1 0 0 1 0 0 -1 0 -1 0 -1 0 0 0 1 0 1 0 0 0 0 -1 0 0 1 0 0 1 1 0 0 0 -1 0 0 0 -1 0 1 0 -1 0 0 0 -1 0 -1 0 0 0 1 0 1 0 0 0 2.16282e-6 -1 0 0 1 0 -1 0 -1 0 0 0 1 0 1 0 0 0 0 -1 0 0 1 0 -1 0 -1 0 0 0 1 0 1 0 0 0 0 -1 0 0 1 0 -1 0 -1 0 0 0 1 0 1 0 0 0 0 -1 0 0 -1 0 0 -1 0 0 -1 0 0 -1 0 0 -1 0 0 -1 0 0 -1 0 0 -1 0 0 -1 0 0 -1 0 0 -1 0 0 -1 0 0 -1 0 0 -1 0 0 -1 0 0 -1 0 0 -1 0 0 -1 0 0 -1 0 0 -1 0 0 -1 0 0 -1 0 0 -1 0 0 -1 0 0 -1 0 0 -1 0 0 -1 0 0 -1 0 0 -1 0 0 -1 0 0 -1 0 0 -1 0 0 -1 0 0 1 0 0 1 0 0 1 0 0 1 0 0 1 0 0 1 0 0 1 0 0 1 0 0 1 0 0 1 0 0 1 0 0 1 0 0 1 0 0 1 0 0 1 0 0 1 0 0 1 0 0 1 0 0 1 0 0 1 0 0 1 0 0 1 0 0 1 0 0 1 0 0 1 0 0 1 0 0 1 0 0 1 0 0 1 0 0 1 0 0 1 0 0 1 0 0 1 0 0 1 0.9894114 -0.1451383 0 0.9112961 -0.4117516 0 0.782338 -0.622854 0 0.633181 -0.7740038 0 0.4825865 -0.8758484 0 0.3377563 -0.9412336 0 0.1995659 -0.9798844 0 0.06598538 -0.9978206 0 -0.06598454 -0.9978207 0 -0.1995659 -0.9798844 0 -0.3377563 -0.9412336 0 -0.4825865 -0.8758484 0 -0.6331884 -0.7739977 0 -0.782338 -0.622854 0 -0.9112961 -0.4117516 0 -0.9894088 -0.1451563 0 -0.989409 0.145155 0 -0.9112947 0.4117549 0 -0.782338 0.622854 0 -0.6331884 0.7739977 0 -0.4825811 0.8758513 0 -0.3377622 0.9412315 0 -0.1995659 0.9798844 0 -0.06597834 0.9978211 0 0.06597918 0.997821 0 0.1995659 0.9798844 0 0.3377622 0.9412315 0 0.4825811 0.8758513 0 0.633181 0.7740038 0 0.782338 0.622854 0 0.9112947 0.4117549 0 0.9894115 0.145137 0 0 -1 0 -1 0 0 0 1 0 1 0 0 0 0 -1 0 0 -1 0 0 -1 0 0 1 0 0 1 0 0 1 1 0 0 0 -1 0 0 0 1 0 0 1 0 0 1 0 0 1 0 0 1 0 0 1 0 0 1 0 0 1 0 0 1 0 0 1 0 0 1 0 0 1 0 0 1 0 0 1 0 0 1 0 0 1 0 0 1 0 0 1 0 0 1 0 0 1 0 0 1 0 0 1 0 0 1 0 0 1 0 0 1 0 0 1 0 0 1 0 0 1 0 0 1 0 0 1 0 0 1 0 0 1 0 0 1 0 0 1 0 0 1 0 0 1 0 0 1 0 0 1 0 0 1 0 0 1 0 0 1 0 0 1 0 0 1 0 0 1 0 0 1 0 0 1 0 0 1 0 0 1 0 0 1 0 0 1 0 0 1 0 0 1 0 0 1 0 0 1 0 0 1 0 0 1 0 0 1 0 0 1 0 0 1 0 0 1 0 0 1 0 0 -1 0 0 -1 0 0 -1 0 0 -1 0 0 -1 0 0 -1 0 0 -1 0 0 -1 0 0 -1 0 0 -1 0 0 -1 0 0 -1 0 0 -1 0 0 -1 0 0 -1 0 0 -1 0 0 -1 0 0 -1 0 0 -1 0 0 -1 0 0 -1 0 0 -1 0 0 -1 0 0 -1 0 0 -1 0 0 -1 0 0 -1 0 0 -1 0 0 -1 0 -1 0 -1 0 0 0 1 0 1 0 0 0 0 -1 0 0 1</float_array>
          <technique_common>
            <accessor source="#Cube-mesh-normals-array" count="348" stride="3">
              <param name="X" type="float"/>
              <param name="Y" type="float"/>
              <param name="Z" type="float"/>
            </accessor>
          </technique_common>
        </source>
        <source id="Cube-mesh-map-0">
          <float_array id="Cube-mesh-map-0-array" count="2088">0.875 0.5 0.625 0.75 0.625 0.5 0.375 0.75 0.625 1 0.375 1 0.625 0 0.375 0.25 0.375 0 0.375 0.5 0.125 0.75 0.125 0.5 0.625 0.5 0.375 0.75 0.375 0.5 0.625 0.25 0.375 0.5 0.375 0.25 0.625 0 0.375 0.25 0.375 0 0.625 0.25 0.375 0.5 0.375 0.25 0.625 0.5 0.375 0.75 0.375 0.5 0.375 0.75 0.625 1 0.375 1 0.375 0.5 0.125 0.75 0.125 0.5 0.875 0.5 0.625 0.75 0.625 0.5 0.625 0 0.375 0.25 0.375 0 0.625 0.25 0.375 0.5 0.375 0.25 0.625 0.5 0.375 0.75 0.375 0.5 0.625 0.75 0.375 1 0.375 0.75 0.375 0.5 0.125 0.75 0.125 0.5 0.875 0.5 0.625 0.75 0.625 0.5 0.625 0 0.375 0.25 0.375 0 0.625 0.25 0.375 0.5 0.375 0.25 0.625 0.5 0.375 0.75 0.375 0.5 0.625 0.75 0.375 1 0.375 0.75 0.125 0.5 0.375 0.75 0.125 0.75 0.875 0.5 0.625 0.75 0.625 0.5 0.625 0 0.375 0.25 0.375 0 0.625 0.25 0.375 0.5 0.375 0.25 0.625 0.5 0.375 0.75 0.375 0.5 0.625 0.75 0.375 1 0.375 0.75 0.375 0.5 0.2508033 0.6125596 0.25 0.6124418 0.125 0.75 0.2491967 0.6245903 0.25 0.6247081 0.625 0.75 0.7491968 0.6245903 0.7500001 0.6247082 0.875 0.5 0.7508033 0.6125596 0.7500001 0.6124418 1 0.5 0.96875 0.7000001 1 0.7000001 0.96875 0.5 0.9375 0.7000001 0.96875 0.7000001 0.9375 0.5 0.90625 0.7 0.9375 0.7000001 0.875 0.5 0.90625 0.7 0.90625 0.5 0.84375 0.5 0.875 0.7 0.875 0.5 0.8125 0.5 0.84375 0.7000001 0.84375 0.5 0.78125 0.5 0.8125 0.7000001 0.8125 0.5 0.75 0.5 0.78125 0.7000001 0.78125 0.5 0.71875 0.5 0.75 0.7000001 0.75 0.5 0.6875 0.5 0.71875 0.7000001 0.71875 0.5 0.65625 0.5 0.6875 0.7000001 0.6875 0.5 0.625 0.5 0.65625 0.7 0.65625 0.5 0.59375 0.5 0.625 0.7 0.625 0.5 0.5625 0.5 0.59375 0.7000001 0.59375 0.5 0.53125 0.5 0.5625 0.7000001 0.5625 0.5 0.5 0.5 0.53125 0.7000001 0.53125 0.5 0.5 0.7000001 0.46875 0.5 0.46875 0.7000001 0.4375 0.5 0.46875 0.7000001 0.46875 0.5 0.40625 0.5 0.4375 0.7000001 0.4375 0.5 0.40625 0.5 0.375 0.7 0.40625 0.7 0.375 0.5 0.34375 0.7000001 0.375 0.7 0.3125 0.7000001 0.34375 0.5 0.3125 0.5 0.3125 0.5 0.28125 0.7000001 0.3125 0.7000001 0.28125 0.5 0.25 0.7000001 0.28125 0.7000001 0.25 0.5 0.21875 0.7000001 0.25 0.7000001 0.21875 0.5 0.1875 0.7000001 0.21875 0.7000001 0.1875 0.5 0.15625 0.7 0.1875 0.7000001 0.15625 0.5 0.125 0.7 0.15625 0.7 0.125 0.5 0.09375 0.7000001 0.125 0.7 0.09375 0.5 0.0625 0.7000001 0.09375 0.7000001 0.0625 0.5 0.03125 0.7000001 0.0625 0.7000001 0.03125 0.5 0 0.7 0.03125 0.7000001 0.625 0.25 0.375 0.04246282 0.625 0.04246282 0.625 0.25 0.375 0.5 0.375 0.25 0.625 0.5 0.375 0.75 0.375 0.5 0.375 0.75 0.625 0.9488636 0.375 0.9488636 0.375 0.75 0.1761363 0.75 0.1761363 0.7075371 0.875 0.5 0.875 0.7075372 0.8238637 0.7075372 0.3753954 0.2606383 0.3911246 0.5 0.3911246 0.2606382 0.3911246 0.5 0.3753954 0.75 0.3911246 0.75 1 1 0.96875 0.5 1 0.5 0.96875 1 0.9375 0.5 0.96875 0.5 0.9375 1 0.90625 0.5 0.9375 0.5 0.90625 1 0.875 0.5 0.90625 0.5 0.875 1 0.84375 0.5 0.875 0.5 0.84375 1 0.8125 0.5 0.84375 0.5 0.8125 1 0.78125 0.5 0.8125 0.5 0.78125 1 0.75 0.5 0.78125 0.5 0.75 1 0.71875 0.5 0.75 0.5 0.71875 1 0.6875 0.5 0.71875 0.5 0.6875 1 0.65625 0.5 0.6875 0.5 0.65625 1 0.625 0.5 0.65625 0.5 0.625 1 0.59375 0.5 0.625 0.5 0.59375 1 0.5625 0.5 0.59375 0.5 0.5625 1 0.53125 0.5 0.5625 0.5 0.53125 1 0.5 0.5 0.53125 0.5 0.5 1 0.46875 0.5 0.5 0.5 0.46875 1 0.4375 0.5 0.46875 0.5 0.4375 1 0.40625 0.5 0.4375 0.5 0.40625 1 0.375 0.5 0.40625 0.5 0.375 1 0.34375 0.5 0.375 0.5 0.34375 1 0.3125 0.5 0.34375 0.5 0.3125 1 0.28125 0.5 0.3125 0.5 0.28125 1 0.25 0.5 0.28125 0.5 0.25 1 0.21875 0.5 0.25 0.5 0.21875 1 0.1875 0.5 0.21875 0.5 0.1875 1 0.15625 0.5 0.1875 0.5 0.15625 1 0.125 0.5 0.15625 0.5 0.125 1 0.09375 0.5 0.125 0.5 0.09375 1 0.0625 0.5 0.09375 0.5 0.4197056 0.4197056 0.3833369 0.4495527 0.08029437 0.4197056 0.0625 1 0.03125 0.5 0.0625 0.5 0.03125 1 0 0.5 0.03125 0.5 0.6166632 0.4495527 0.658156 0.4717311 0.8833369 0.4495527 0.625 0 0.375 0.25 0.375 0 0.625 0.25 0.375 0.5 0.375 0.25 0.625 0.5 0.375 0.75 0.375 0.5 0.625 0.75 0.375 1 0.375 0.75 0.375 0.5 0.125 0.75 0.125 0.5 0.875 0.5 0.625 0.75 0.625 0.5 0.875 0.5 0.875 0.75 0.625 0.75 0.375 0.75 0.625 0.75 0.625 1 0.625 0 0.625 0.25 0.375 0.25 0.375 0.5 0.375 0.75 0.125 0.75 0.625 0.5 0.625 0.75 0.375 0.75 0.625 0.25 0.625 0.5 0.375 0.5 0.625 0 0.625 0.25 0.375 0.25 0.625 0.25 0.625 0.5 0.375 0.5 0.625 0.5 0.625 0.75 0.375 0.75 0.375 0.75 0.625 0.75 0.625 1 0.375 0.5 0.375 0.75 0.125 0.75 0.875 0.5 0.875 0.75 0.625 0.75 0.625 0 0.625 0.25 0.375 0.25 0.625 0.25 0.625 0.5 0.375 0.5 0.625 0.5 0.625 0.75 0.375 0.75 0.625 0.75 0.625 1 0.375 1 0.375 0.5 0.375 0.75 0.125 0.75 0.875 0.5 0.875 0.75 0.625 0.75 0.625 0 0.625 0.25 0.375 0.25 0.625 0.25 0.625 0.5 0.375 0.5 0.625 0.5 0.625 0.75 0.375 0.75 0.625 0.75 0.625 1 0.375 1 0.125 0.5 0.375 0.5 0.375 0.75 0.875 0.5 0.875 0.75 0.625 0.75 0.625 0 0.625 0.25 0.375 0.25 0.625 0.25 0.625 0.5 0.375 0.5 0.625 0.5 0.625 0.75 0.375 0.75 0.625 0.75 0.625 1 0.375 1 0.2484242 0.6129086 0.2477123 0.6134753 0.125 0.5 0.125 0.5 0.375 0.5 0.25 0.6124418 0.375 0.5 0.2522876 0.6134753 0.2515757 0.6129086 0.375 0.5 0.2515757 0.6129086 0.2508033 0.6125596 0.2491966 0.6125596 0.2484242 0.6129086 0.125 0.5 0.25 0.6124418 0.2491966 0.6125596 0.125 0.5 0.2529116 0.6142382 0.2522876 0.6134753 0.375 0.5 0.125 0.75 0.125 0.5 0.2458823 0.6185749 0.125 0.5 0.2477123 0.6134753 0.2470883 0.6142381 0.125 0.5 0.2470883 0.6142381 0.2465763 0.6151675 0.2529116 0.6142382 0.375 0.5 0.2534237 0.6151676 0.375 0.5 0.375 0.75 0.2541176 0.618575 0.2534237 0.6151676 0.375 0.5 0.2538042 0.6162279 0.2538042 0.6162279 0.375 0.5 0.2540385 0.6173784 0.125 0.5 0.2465763 0.6151675 0.2461957 0.6162279 0.125 0.5 0.2461957 0.6162279 0.2459614 0.6173784 0.2540385 0.6173784 0.375 0.5 0.2541176 0.618575 0.125 0.5 0.2459614 0.6173784 0.2458823 0.6185749 0.2540385 0.6197715 0.2541176 0.618575 0.375 0.75 0.125 0.75 0.2458823 0.6185749 0.2459614 0.6197715 0.125 0.75 0.2459614 0.6197715 0.2461957 0.620922 0.2538042 0.620922 0.2540385 0.6197715 0.375 0.75 0.2534236 0.6219823 0.2538042 0.620922 0.375 0.75 0.125 0.75 0.2461957 0.620922 0.2465763 0.6219823 0.125 0.75 0.2465763 0.6219823 0.2470883 0.6229117 0.2529116 0.6229117 0.2534236 0.6219823 0.375 0.75 0.2522876 0.6236745 0.2529116 0.6229117 0.375 0.75 0.125 0.75 0.2470883 0.6229117 0.2477123 0.6236745 0.125 0.75 0.2477123 0.6236745 0.2484242 0.6242413 0.2522876 0.6236745 0.375 0.75 0.2515757 0.6242412 0.375 0.75 0.125 0.75 0.25 0.6247081 0.2515757 0.6242412 0.375 0.75 0.2508033 0.6245903 0.2508033 0.6245903 0.375 0.75 0.25 0.6247081 0.125 0.75 0.2484242 0.6242413 0.2491967 0.6245903 0.7529116 0.6142381 0.7522877 0.6134753 0.875 0.5 0.625 0.75 0.625 0.5 0.7458824 0.618575 0.625 0.5 0.7477124 0.6134754 0.7470884 0.6142382 0.625 0.5 0.7470884 0.6142382 0.7465764 0.6151675 0.7529116 0.6142381 0.875 0.5 0.7534237 0.6151675 0.875 0.5 0.875 0.75 0.7541177 0.6185749 0.7534237 0.6151675 0.875 0.5 0.7538043 0.6162279 0.7538043 0.6162279 0.875 0.5 0.7540386 0.6173784 0.625 0.5 0.7465764 0.6151675 0.7461958 0.6162279 0.625 0.5 0.7461958 0.6162279 0.7459614 0.6173784 0.7540386 0.6173784 0.875 0.5 0.7541177 0.6185749 0.625 0.5 0.7459614 0.6173784 0.7458824 0.618575 0.7540386 0.6197715 0.7541177 0.6185749 0.875 0.75 0.625 0.75 0.7458824 0.618575 0.7459614 0.6197715 0.625 0.75 0.7459614 0.6197715 0.7461959 0.620922 0.7538042 0.620922 0.7540386 0.6197715 0.875 0.75 0.7534237 0.6219823 0.7538042 0.620922 0.875 0.75 0.625 0.75 0.7461959 0.620922 0.7465763 0.6219823 0.625 0.75 0.7465763 0.6219823 0.7470884 0.6229117 0.7529117 0.6229118 0.7534237 0.6219823 0.875 0.75 0.7522876 0.6236744 0.7529117 0.6229118 0.875 0.75 0.625 0.75 0.7470884 0.6229117 0.7477124 0.6236745 0.625 0.75 0.7477124 0.6236745 0.7484243 0.6242412 0.7522876 0.6236744 0.875 0.75 0.7515758 0.6242413 0.875 0.75 0.625 0.75 0.7500001 0.6247082 0.7515758 0.6242413 0.875 0.75 0.7508034 0.6245903 0.7508034 0.6245903 0.875 0.75 0.7500001 0.6247082 0.625 0.75 0.7484243 0.6242412 0.7491968 0.6245903 0.7484243 0.6129086 0.7477124 0.6134754 0.625 0.5 0.625 0.5 0.875 0.5 0.7500001 0.6124418 0.875 0.5 0.7522877 0.6134753 0.7515758 0.6129086 0.875 0.5 0.7515758 0.6129086 0.7508033 0.6125596 0.7491967 0.6125596 0.7484243 0.6129086 0.625 0.5 0.7500001 0.6124418 0.7491967 0.6125596 0.625 0.5 1 0.5 0.96875 0.5 0.96875 0.7000001 0.96875 0.5 0.9375 0.5 0.9375 0.7000001 0.9375 0.5 0.90625 0.5 0.90625 0.7 0.875 0.5 0.875 0.7 0.90625 0.7 0.84375 0.5 0.84375 0.7000001 0.875 0.7 0.8125 0.5 0.8125 0.7000001 0.84375 0.7000001 0.78125 0.5 0.78125 0.7000001 0.8125 0.7000001 0.75 0.5 0.75 0.7000001 0.78125 0.7000001 0.71875 0.5 0.71875 0.7000001 0.75 0.7000001 0.6875 0.5 0.6875 0.7000001 0.71875 0.7000001 0.65625 0.5 0.65625 0.7 0.6875 0.7000001 0.625 0.5 0.625 0.7 0.65625 0.7 0.59375 0.5 0.59375 0.7000001 0.625 0.7 0.5625 0.5 0.5625 0.7000001 0.59375 0.7000001 0.53125 0.5 0.53125 0.7000001 0.5625 0.7000001 0.5 0.5 0.5 0.7000001 0.53125 0.7000001 0.5 0.7000001 0.5 0.5 0.46875 0.5 0.4375 0.5 0.4375 0.7000001 0.46875 0.7000001 0.40625 0.5 0.40625 0.7 0.4375 0.7000001 0.40625 0.5 0.375 0.5 0.375 0.7 0.375 0.5 0.34375 0.5 0.34375 0.7000001 0.3125 0.7000001 0.34375 0.7000001 0.34375 0.5 0.3125 0.5 0.28125 0.5 0.28125 0.7000001 0.28125 0.5 0.25 0.5 0.25 0.7000001 0.25 0.5 0.21875 0.5 0.21875 0.7000001 0.21875 0.5 0.1875 0.5 0.1875 0.7000001 0.1875 0.5 0.15625 0.5 0.15625 0.7 0.15625 0.5 0.125 0.5 0.125 0.7 0.125 0.5 0.09375 0.5 0.09375 0.7000001 0.09375 0.5 0.0625 0.5 0.0625 0.7000001 0.0625 0.5 0.03125 0.5 0.03125 0.7000001 0.03125 0.5 0 0.5 0 0.7 0.625 0.25 0.375 0.25 0.375 0.04246282 0.625 0.25 0.625 0.5 0.375 0.5 0.625 0.5 0.625 0.75 0.375 0.75 0.375 0.75 0.625 0.75 0.625 0.9488636 0.125 0.7075372 0.125 0.5 0.1761363 0.7075371 0.125 0.5 0.375 0.5 0.1761363 0.7075371 0.375 0.5 0.375 0.75 0.1761363 0.7075371 0.8238636 0.75 0.625 0.75 0.8238637 0.7075372 0.625 0.75 0.625 0.5 0.8238637 0.7075372 0.625 0.5 0.875 0.5 0.8238637 0.7075372 0.3753954 0.2606383 0.3753954 0.5 0.3911246 0.5 0.3911246 0.5 0.3753954 0.5 0.3753954 0.75 1 1 0.96875 1 0.96875 0.5 0.96875 1 0.9375 1 0.9375 0.5 0.9375 1 0.90625 1 0.90625 0.5 0.90625 1 0.875 1 0.875 0.5 0.875 1 0.84375 1 0.84375 0.5 0.84375 1 0.8125 1 0.8125 0.5 0.8125 1 0.78125 1 0.78125 0.5 0.78125 1 0.75 1 0.75 0.5 0.75 1 0.71875 1 0.71875 0.5 0.71875 1 0.6875 1 0.6875 0.5 0.6875 1 0.65625 1 0.65625 0.5 0.65625 1 0.625 1 0.625 0.5 0.625 1 0.59375 1 0.59375 0.5 0.59375 1 0.5625 1 0.5625 0.5 0.5625 1 0.53125 1 0.53125 0.5 0.53125 1 0.5 1 0.5 0.5 0.5 1 0.46875 1 0.46875 0.5 0.46875 1 0.4375 1 0.4375 0.5 0.4375 1 0.40625 1 0.40625 0.5 0.40625 1 0.375 1 0.375 0.5 0.375 1 0.34375 1 0.34375 0.5 0.34375 1 0.3125 1 0.3125 0.5 0.3125 1 0.28125 1 0.28125 0.5 0.28125 1 0.25 1 0.25 0.5 0.25 1 0.21875 1 0.21875 0.5 0.21875 1 0.1875 1 0.1875 0.5 0.1875 1 0.15625 1 0.15625 0.5 0.15625 1 0.125 1 0.125 0.5 0.125 1 0.09375 1 0.09375 0.5 0.09375 1 0.0625 1 0.0625 0.5 0.341844 0.4717311 0.2968217 0.4853885 0.2031783 0.4853885 0.2968217 0.4853885 0.25 0.49 0.2031783 0.4853885 0.2031783 0.4853885 0.1581559 0.4717311 0.341844 0.4717311 0.1581559 0.4717311 0.1166631 0.4495527 0.341844 0.4717311 0.1166631 0.4495527 0.08029437 0.4197056 0.3833369 0.4495527 0.341844 0.4717311 0.1166631 0.4495527 0.3833369 0.4495527 0.08029437 0.4197056 0.05044728 0.3833369 0.4197056 0.4197056 0.05044728 0.3833369 0.02826887 0.341844 0.4495527 0.3833369 0.4197056 0.4197056 0.05044728 0.3833369 0.4495527 0.3833369 0.02826887 0.341844 0.01461154 0.2968217 0.4853885 0.2968217 0.01461154 0.2968217 0.00999999 0.25 0.49 0.25 0.00999999 0.25 0.01461154 0.2031783 0.4853885 0.2031783 0.01461154 0.2031783 0.02826887 0.1581559 0.4717311 0.1581559 0.02826887 0.1581559 0.05044728 0.1166631 0.4717311 0.1581559 0.05044728 0.1166631 0.08029437 0.08029437 0.4495527 0.1166631 0.4717311 0.1581559 0.05044728 0.1166631 0.4495527 0.1166631 0.08029437 0.08029437 0.1166631 0.05044728 0.4197056 0.08029437 0.1166631 0.05044728 0.1581559 0.02826887 0.3833369 0.05044728 0.4197056 0.08029437 0.1166631 0.05044728 0.3833369 0.05044728 0.1581559 0.02826887 0.2031783 0.01461154 0.2968217 0.01461154 0.2031783 0.01461154 0.25 0.00999999 0.2968217 0.01461154 0.2968217 0.01461154 0.341844 0.02826887 0.1581559 0.02826887 0.341844 0.02826887 0.3833369 0.05044728 0.1581559 0.02826887 0.4197056 0.08029437 0.4495527 0.1166631 0.08029437 0.08029437 0.4717311 0.1581559 0.4853885 0.2031783 0.01461154 0.2031783 0.4853885 0.2031783 0.49 0.25 0.00999999 0.25 0.49 0.25 0.4853885 0.2968217 0.01461154 0.2968217 0.4853885 0.2968217 0.4717311 0.341844 0.02826887 0.341844 0.4717311 0.341844 0.4495527 0.3833369 0.02826887 0.341844 0.0625 1 0.03125 1 0.03125 0.5 0.03125 1 0 1 0 0.5 0.7031784 0.4853885 0.75 0.49 0.7968217 0.4853885 0.7968217 0.4853885 0.841844 0.4717311 0.7031784 0.4853885 0.841844 0.4717311 0.8833369 0.4495527 0.658156 0.4717311 0.7031784 0.4853885 0.841844 0.4717311 0.658156 0.4717311 0.8833369 0.4495527 0.9197056 0.4197056 0.5802944 0.4197056 0.9197056 0.4197056 0.9495527 0.3833369 0.5504473 0.3833369 0.9495527 0.3833369 0.9717311 0.341844 0.5504473 0.3833369 0.9717311 0.341844 0.9853885 0.2968217 0.5282689 0.341844 0.5504473 0.3833369 0.9717311 0.341844 0.5282689 0.341844 0.9853885 0.2968217 0.99 0.25 0.51 0.25 0.99 0.25 0.9853885 0.2031783 0.5146116 0.2031783 0.9853885 0.2031783 0.9717311 0.1581559 0.5146116 0.2031783 0.9717311 0.1581559 0.9495527 0.1166631 0.5282689 0.1581559 0.5146116 0.2031783 0.9717311 0.1581559 0.5282689 0.1581559 0.9495527 0.1166631 0.9197056 0.08029437 0.5802944 0.08029437 0.9197056 0.08029437 0.8833369 0.05044728 0.6166632 0.05044728 0.8833369 0.05044728 0.841844 0.02826887 0.6166632 0.05044728 0.841844 0.02826887 0.7968217 0.01461154 0.658156 0.02826887 0.6166632 0.05044728 0.841844 0.02826887 0.658156 0.02826887 0.7968217 0.01461154 0.75 0.00999999 0.7031784 0.01461154 0.7031784 0.01461154 0.658156 0.02826887 0.7968217 0.01461154 0.6166632 0.05044728 0.5802944 0.08029437 0.9197056 0.08029437 0.5802944 0.08029437 0.5504473 0.1166631 0.9495527 0.1166631 0.5504473 0.1166631 0.5282689 0.1581559 0.9495527 0.1166631 0.5146116 0.2031783 0.51 0.25 0.99 0.25 0.51 0.25 0.5146116 0.2968217 0.9853885 0.2968217 0.5146116 0.2968217 0.5282689 0.341844 0.9853885 0.2968217 0.5504473 0.3833369 0.5802944 0.4197056 0.9197056 0.4197056 0.5802944 0.4197056 0.6166632 0.4495527 0.8833369 0.4495527 0.625 0 0.625 0.25 0.375 0.25 0.625 0.25 0.625 0.5 0.375 0.5 0.625 0.5 0.625 0.75 0.375 0.75 0.625 0.75 0.625 1 0.375 1 0.375 0.5 0.375 0.75 0.125 0.75 0.875 0.5 0.875 0.75 0.625 0.75</float_array>
          <technique_common>
            <accessor source="#Cube-mesh-map-0-array" count="1044" stride="2">
              <param name="S" type="float"/>
              <param name="T" type="float"/>
            </accessor>
          </technique_common>
        </source>
        <vertices id="Cube-mesh-vertices">
          <input semantic="POSITION" source="#Cube-mesh-positions"/>
        </vertices>
        <triangles material="table_white-material" count="12">
          <input semantic="VERTEX" source="#Cube-mesh-vertices" offset="0"/>
          <input semantic="NORMAL" source="#Cube-mesh-normals" offset="1"/>
          <input semantic="TEXCOORD" source="#Cube-mesh-map-0" offset="2" set="0"/>
          <p>4 0 0 2 0 1 0 0 2 3 1 3 6 1 4 7 1 5 6 2 6 5 2 7 7 2 8 1 3 9 7 3 10 5 3 11 0 4 12 3 4 13 1 4 14 4 5 15 1 5 16 5 5 17 4 112 336 6 112 337 2 112 338 3 113 339 2 113 340 6 113 341 6 114 342 4 114 343 5 114 344 1 115 345 3 115 346 7 115 347 0 116 348 2 116 349 3 116 350 4 117 351 0 117 352 1 117 353</p>
        </triangles>
        <triangles material="pillar_aluminium-material" count="36">
          <input semantic="VERTEX" source="#Cube-mesh-vertices" offset="0"/>
          <input semantic="NORMAL" source="#Cube-mesh-normals" offset="1"/>
          <input semantic="TEXCOORD" source="#Cube-mesh-map-0" offset="2" set="0"/>
          <p>9 6 18 10 6 19 8 6 20 11 7 21 14 7 22 10 7 23 15 8 24 12 8 25 14 8 26 12 9 27 9 9 28 8 9 29 14 10 30 8 10 31 10 10 32 11 11 33 13 11 34 15 11 35 17 12 36 18 12 37 16 12 38 19 13 39 22 13 40 18 13 41 23 14 42 20 14 43 22 14 44 21 15 45 16 15 46 20 15 47 22 16 48 16 16 49 18 16 50 19 17 51 21 17 52 23 17 53 25 18 54 26 18 55 24 18 56 27 19 57 30 19 58 26 19 59 31 20 60 28 20 61 30 20 62 29 21 63 24 21 64 28 21 65 26 22 66 28 22 67 24 22 68 27 23 69 29 23 70 31 23 71 9 118 354 11 118 355 10 118 356 11 119 357 15 119 358 14 119 359 15 120 360 13 120 361 12 120 362 12 121 363 13 121 364 9 121 365 14 122 366 12 122 367 8 122 368 11 123 369 9 123 370 13 123 371 17 124 372 19 124 373 18 124 374 19 125 375 23 125 376 22 125 377 23 126 378 21 126 379 20 126 380 21 127 381 17 127 382 16 127 383 22 128 384 20 128 385 16 128 386 19 129 387 17 129 388 21 129 389 25 130 390 27 130 391 26 130 392 27 131 393 31 131 394 30 131 395 31 132 396 29 132 397 28 132 398 29 133 399 25 133 400 24 133 401 26 134 402 30 134 403 28 134 404 27 135 405 25 135 406 29 135 407</p>
        </triangles>
        <triangles material="roof_white-material" count="144">
          <input semantic="VERTEX" source="#Cube-mesh-vertices" offset="0"/>
          <input semantic="NORMAL" source="#Cube-mesh-normals" offset="1"/>
          <input semantic="TEXCOORD" source="#Cube-mesh-map-0" offset="2" set="0"/>
          <p>34 24 72 35 24 73 32 24 74 37 25 75 41 25 76 35 25 77 43 26 78 38 26 79 41 26 80 40 27 81 32 27 82 38 27 83 41 28 84 36 28 85 33 28 86 32 29 87 57 29 88 56 29 89 40 30 90 100 30 91 88 30 92 37 31 93 98 31 94 85 31 95 33 32 96 89 32 97 85 32 98 36 33 99 87 33 100 89 33 101 39 34 102 86 34 103 87 34 104 44 35 105 86 35 106 42 35 107 45 36 108 96 36 109 44 36 110 46 37 111 90 37 112 45 37 113 47 38 114 95 38 115 46 38 116 48 39 117 93 39 118 47 39 119 49 40 120 91 40 121 48 40 122 50 41 123 92 41 124 49 41 125 51 42 126 94 42 127 50 42 128 52 43 129 102 43 130 51 43 131 53 44 132 101 44 133 52 44 134 54 45 135 103 45 136 53 45 137 55 46 138 99 46 139 54 46 140 56 47 141 100 47 142 55 47 143 88 48 144 57 48 145 97 48 146 58 49 147 97 49 148 57 49 149 59 50 150 80 50 151 58 50 152 59 51 153 78 51 154 82 51 155 60 52 156 75 52 157 78 52 158 76 53 159 61 53 160 62 53 161 62 54 162 73 54 163 76 54 164 63 55 165 72 55 166 73 55 167 64 56 168 74 56 169 72 56 170 65 57 171 77 57 172 74 57 173 66 58 174 84 58 175 77 58 176 67 59 177 79 59 178 84 59 179 68 60 180 83 60 181 79 60 182 69 61 183 81 61 184 83 61 185 70 62 186 98 62 187 81 62 188 71 63 189 85 63 190 98 63 191 34 136 408 37 136 409 35 136 410 37 137 411 43 137 412 41 137 413 43 138 414 40 138 415 38 138 416 40 139 417 34 139 418 32 139 419 70 140 420 69 140 421 35 140 422 35 141 423 41 141 424 33 141 425 41 142 426 42 142 427 39 142 428 41 143 429 39 143 430 36 143 431 71 144 432 70 144 433 35 144 434 33 145 435 71 145 436 35 145 437 44 146 438 42 146 439 41 146 440 32 147 441 35 147 442 64 147 443 35 148 444 69 148 445 68 148 446 35 149 447 68 149 448 67 149 449 44 150 450 41 150 451 45 150 452 41 151 453 38 151 454 48 151 455 45 152 456 41 152 457 46 152 458 46 153 459 41 153 460 47 153 461 35 154 462 67 154 463 66 154 464 35 155 465 66 155 466 65 155 467 47 156 468 41 156 469 48 156 470 35 157 471 65 157 472 64 157 473 49 158 474 48 158 475 38 158 476 32 159 477 64 159 478 63 159 479 32 160 480 63 160 481 62 160 482 50 161 483 49 161 484 38 161 485 51 162 486 50 162 487 38 162 488 32 163 489 62 163 490 61 163 491 32 164 492 61 164 493 60 164 494 52 165 495 51 165 496 38 165 497 53 166 498 52 166 499 38 166 500 32 167 501 60 167 502 59 167 503 32 168 504 59 168 505 58 168 506 53 169 507 38 169 508 54 169 509 38 170 510 32 170 511 56 170 512 54 171 513 38 171 514 55 171 515 55 172 516 38 172 517 56 172 518 32 173 519 58 173 520 57 173 521 79 174 522 83 174 523 37 174 524 40 175 525 43 175 526 91 175 527 43 176 528 86 176 529 96 176 530 43 177 531 96 177 532 90 177 533 79 178 534 37 178 535 84 178 536 37 179 537 34 179 538 72 179 539 84 180 540 37 180 541 77 180 542 77 181 543 37 181 544 74 181 545 43 182 546 90 182 547 95 182 548 43 183 549 95 183 550 93 183 551 74 184 552 37 184 553 72 184 554 43 185 555 93 185 556 91 185 557 73 186 558 72 186 559 34 186 560 40 187 561 91 187 562 92 187 563 40 188 564 92 188 565 94 188 566 76 189 567 73 189 568 34 189 569 75 190 570 76 190 571 34 190 572 40 191 573 94 191 574 102 191 575 40 192 576 102 192 577 101 192 578 78 193 579 75 193 580 34 193 581 82 194 582 78 194 583 34 194 584 40 195 585 101 195 586 103 195 587 40 196 588 103 196 589 99 196 590 82 197 591 34 197 592 80 197 593 34 198 594 40 198 595 88 198 596 80 199 597 34 199 598 97 199 599 97 200 600 34 200 601 88 200 602 40 201 603 99 201 604 100 201 605 87 202 606 86 202 607 43 202 608 43 203 609 37 203 610 85 203 611 37 204 612 83 204 613 81 204 614 37 205 615 81 205 616 98 205 617 89 206 618 87 206 619 43 206 620 85 207 621 89 207 622 43 207 623 33 208 624 36 208 625 89 208 626 36 209 627 39 209 628 87 209 629 39 210 630 42 210 631 86 210 632 44 211 633 96 211 634 86 211 635 45 212 636 90 212 637 96 212 638 46 213 639 95 213 640 90 213 641 47 214 642 93 214 643 95 214 644 48 215 645 91 215 646 93 215 647 49 216 648 92 216 649 91 216 650 50 217 651 94 217 652 92 217 653 51 218 654 102 218 655 94 218 656 52 219 657 101 219 658 102 219 659 53 220 660 103 220 661 101 220 662 54 221 663 99 221 664 103 221 665 55 222 666 100 222 667 99 222 668 56 223 669 88 223 670 100 223 671 88 224 672 56 224 673 57 224 674 58 225 675 80 225 676 97 225 677 59 226 678 82 226 679 80 226 680 59 227 681 60 227 682 78 227 683 60 228 684 61 228 685 75 228 686 76 229 687 75 229 688 61 229 689 62 230 690 63 230 691 73 230 692 63 231 693 64 231 694 72 231 695 64 232 696 65 232 697 74 232 698 65 233 699 66 233 700 77 233 701 66 234 702 67 234 703 84 234 704 67 235 705 68 235 706 79 235 707 68 236 708 69 236 709 83 236 710 69 237 711 70 237 712 81 237 713 70 238 714 71 238 715 98 238 716 71 239 717 33 239 718 85 239 719</p>
        </triangles>
        <triangles material="arm_stand_dark-material" count="20">
          <input semantic="VERTEX" source="#Cube-mesh-vertices" offset="0"/>
          <input semantic="NORMAL" source="#Cube-mesh-normals" offset="1"/>
          <input semantic="TEXCOORD" source="#Cube-mesh-map-0" offset="2" set="0"/>
          <p>105 64 192 111 64 193 110 64 194 105 65 195 108 65 196 104 65 197 109 66 198 106 66 199 108 66 200 106 67 201 115 67 202 112 67 203 106 68 204 112 68 205 113 68 206 105 69 207 110 69 208 114 69 209 111 70 210 114 70 211 110 70 212 114 71 213 112 71 214 115 71 215 105 240 720 104 240 721 111 240 722 105 241 723 109 241 724 108 241 725 109 242 726 107 242 727 106 242 728 106 243 729 107 243 730 115 243 731 111 244 732 104 244 733 113 244 734 104 245 735 108 245 736 113 245 737 108 246 738 106 246 739 113 246 740 115 247 741 107 247 742 114 247 743 107 248 744 109 248 745 114 248 746 109 249 747 105 249 748 114 249 749 111 250 750 113 250 751 114 250 752 114 251 753 113 251 754 112 251 755</p>
        </triangles>
        <triangles material="Material_001-material" count="124">
          <input semantic="VERTEX" source="#Cube-mesh-vertices" offset="0"/>
          <input semantic="NORMAL" source="#Cube-mesh-normals" offset="1"/>
          <input semantic="TEXCOORD" source="#Cube-mesh-map-0" offset="2" set="0"/>
          <p>117 72 216 118 72 217 116 72 218 119 73 219 120 73 220 118 73 221 121 74 222 122 74 223 120 74 224 123 75 225 124 75 226 122 75 227 125 76 228 126 76 229 124 76 230 127 77 231 128 77 232 126 77 233 129 78 234 130 78 235 128 78 236 131 79 237 132 79 238 130 79 239 133 80 240 134 80 241 132 80 242 135 81 243 136 81 244 134 81 245 137 82 246 138 82 247 136 82 248 139 83 249 140 83 250 138 83 251 141 84 252 142 84 253 140 84 254 143 85 255 144 85 256 142 85 257 145 86 258 146 86 259 144 86 260 147 87 261 148 87 262 146 87 263 149 88 264 150 88 265 148 88 266 151 89 267 152 89 268 150 89 269 153 90 270 154 90 271 152 90 272 155 91 273 156 91 274 154 91 275 157 92 276 158 92 277 156 92 278 159 93 279 160 93 280 158 93 281 161 94 282 162 94 283 160 94 284 163 95 285 164 95 286 162 95 287 165 96 288 166 96 289 164 96 290 167 97 291 168 97 292 166 97 293 169 98 294 170 98 295 168 98 296 171 99 297 172 99 298 170 99 299 173 100 300 174 100 301 172 100 302 175 101 303 176 101 304 174 101 305 125 102 306 123 102 307 173 102 308 177 103 309 178 103 310 176 103 311 179 104 312 116 104 313 178 104 314 174 105 315 176 105 316 122 105 317 117 252 756 119 252 757 118 252 758 119 253 759 121 253 760 120 253 761 121 254 762 123 254 763 122 254 764 123 255 765 125 255 766 124 255 767 125 256 768 127 256 769 126 256 770 127 257 771 129 257 772 128 257 773 129 258 774 131 258 775 130 258 776 131 259 777 133 259 778 132 259 779 133 260 780 135 260 781 134 260 782 135 261 783 137 261 784 136 261 785 137 262 786 139 262 787 138 262 788 139 263 789 141 263 790 140 263 791 141 264 792 143 264 793 142 264 794 143 265 795 145 265 796 144 265 797 145 266 798 147 266 799 146 266 800 147 267 801 149 267 802 148 267 803 149 268 804 151 268 805 150 268 806 151 269 807 153 269 808 152 269 809 153 270 810 155 270 811 154 270 812 155 271 813 157 271 814 156 271 815 157 272 816 159 272 817 158 272 818 159 273 819 161 273 820 160 273 821 161 274 822 163 274 823 162 274 824 163 275 825 165 275 826 164 275 827 165 276 828 167 276 829 166 276 830 167 277 831 169 277 832 168 277 833 169 278 834 171 278 835 170 278 836 171 279 837 173 279 838 172 279 839 173 280 840 175 280 841 174 280 842 175 281 843 177 281 844 176 281 845 121 282 846 119 282 847 179 282 848 119 283 849 117 283 850 179 283 851 179 284 852 177 284 853 121 284 854 177 285 855 175 285 856 121 285 857 175 286 858 173 286 859 123 286 860 121 287 861 175 287 862 123 287 863 173 288 864 171 288 865 125 288 866 171 289 867 169 289 868 127 289 869 125 290 870 171 290 871 127 290 872 169 291 873 167 291 874 131 291 875 167 292 876 165 292 877 133 292 878 165 293 879 163 293 880 135 293 881 163 294 882 161 294 883 137 294 884 161 295 885 159 295 886 137 295 887 159 296 888 157 296 889 139 296 890 137 297 891 159 297 892 139 297 893 157 298 894 155 298 895 141 298 896 155 299 897 153 299 898 143 299 899 141 300 900 155 300 901 143 300 902 153 301 903 151 301 904 147 301 905 151 302 906 149 302 907 147 302 908 147 303 909 145 303 910 153 303 911 145 304 912 143 304 913 153 304 914 141 305 915 139 305 916 157 305 917 137 306 918 135 306 919 163 306 920 135 307 921 133 307 922 165 307 923 133 308 924 131 308 925 167 308 926 131 309 927 129 309 928 169 309 929 129 310 930 127 310 931 169 310 932 177 311 933 179 311 934 178 311 935 179 312 936 117 312 937 116 312 938 178 313 939 116 313 940 118 313 941 118 314 942 120 314 943 178 314 944 120 315 945 122 315 946 176 315 947 178 316 948 120 316 949 176 316 950 122 317 951 124 317 952 172 317 953 124 318 954 126 318 955 170 318 956 126 319 957 128 319 958 170 319 959 128 320 960 130 320 961 168 320 962 170 321 963 128 321 964 168 321 965 130 322 966 132 322 967 164 322 968 132 323 969 134 323 970 162 323 971 134 324 972 136 324 973 162 324 974 136 325 975 138 325 976 160 325 977 162 326 978 136 326 979 160 326 980 138 327 981 140 327 982 156 327 983 140 328 984 142 328 985 154 328 986 142 329 987 144 329 988 154 329 989 144 330 990 146 330 991 152 330 992 154 331 993 144 331 994 152 331 995 146 332 996 148 332 997 150 332 998 150 333 999 152 333 1000 146 333 1001 154 334 1002 156 334 1003 140 334 1004 156 335 1005 158 335 1006 138 335 1007 158 336 1008 160 336 1009 138 336 1010 162 337 1011 164 337 1012 132 337 1013 164 338 1014 166 338 1015 130 338 1016 166 339 1017 168 339 1018 130 339 1019 170 340 1020 172 340 1021 124 340 1022 172 341 1023 174 341 1024 122 341 1025</p>
        </triangles>
        <triangles material="halter_metallic-material" count="12">
          <input semantic="VERTEX" source="#Cube-mesh-vertices" offset="0"/>
          <input semantic="NORMAL" source="#Cube-mesh-normals" offset="1"/>
          <input semantic="TEXCOORD" source="#Cube-mesh-map-0" offset="2" set="0"/>
          <p>181 106 318 182 106 319 180 106 320 183 107 321 186 107 322 182 107 323 187 108 324 184 108 325 186 108 326 185 109 327 180 109 328 184 109 329 186 110 330 180 110 331 182 110 332 183 111 333 185 111 334 187 111 335 181 342 1026 183 342 1027 182 342 1028 183 343 1029 187 343 1030 186 343 1031 187 344 1032 185 344 1033 184 344 1034 185 345 1035 181 345 1036 180 345 1037 186 346 1038 184 346 1039 180 346 1040 183 347 1041 181 347 1042 185 347 1043</p>
        </triangles>
      </mesh>
    </geometry>
  </library_geometries>
  <library_visual_scenes>
    <visual_scene id="Scene" name="Scene">
      <node id="table" name="table" type="NODE">
        <matrix sid="transform">0.45 0 0 0.64 0 0.6375 0 -0.1335 0 0 0.4685 -0.0755 0 0 0 1</matrix>
        <instance_geometry url="#Cube-mesh" name="table">
          <bind_material>
            <technique_common>
              <instance_material symbol="table_white-material" target="#table_white-material">
                <bind_vertex_input semantic="UVMap" input_semantic="TEXCOORD" input_set="0"/>
              </instance_material>
              <instance_material symbol="pillar_aluminium-material" target="#pillar_aluminium-material">
                <bind_vertex_input semantic="UVMap" input_semantic="TEXCOORD" input_set="0"/>
              </instance_material>
              <instance_material symbol="roof_white-material" target="#roof_white-material">
                <bind_vertex_input semantic="UVMap" input_semantic="TEXCOORD" input_set="0"/>
              </instance_material>
              <instance_material symbol="arm_stand_dark-material" target="#arm_stand_dark-material">
                <bind_vertex_input semantic="UVMap" input_semantic="TEXCOORD" input_set="0"/>
              </instance_material>
              <instance_material symbol="Material_001-material" target="#Material_001-material">
                <bind_vertex_input semantic="UVMap" input_semantic="TEXCOORD" input_set="0"/>
              </instance_material>
              <instance_material symbol="halter_metallic-material" target="#halter_metallic-material">
                <bind_vertex_input semantic="UVMap" input_semantic="TEXCOORD" input_set="0"/>
              </instance_material>
            </technique_common>
          </bind_material>
        </instance_geometry>
      </node>
    </visual_scene>
  </library_visual_scenes>
  <scene>
    <instance_visual_scene url="#Scene"/>
  </scene>
</COLLADA>